<svg width="11" height="11" viewBox="0 0 11 11" fill="none" xmlns="http://www.w3.org/2000/svg">
<path d="M8.77817 0.292893C9.1687 -0.0976309 9.80186 -0.0976312 10.1924 0.292893C10.5829 0.683417 10.5829 1.31658 10.1924 1.70711L1.7071 10.1924C1.31658 10.5829 0.683415 10.5829 0.292891 10.1924C-0.0976335 9.80186 -0.0976335 9.1687 0.292891 8.77818L8.77817 0.292893Z" fill="#7EB621"/>
<path d="M10.1924 8.77818C10.5829 9.16871 10.5829 9.80188 10.1924 10.1924C9.80186 10.5829 9.1687 10.5829 8.77817 10.1924L0.292893 1.70712C-0.097631 1.31659 -0.0976312 0.683427 0.292893 0.292903C0.683417 -0.0976211 1.31658 -0.097621 1.70711 0.292903L10.1924 8.77818Z" fill="#7EB621"/>
</svg>
